<mxfile host="app.diagrams.net" modified="2021-01-08T10:09:31.254Z" agent="5.0 (Macintosh; Intel Mac OS X 11_1_0) AppleWebKit/537.36 (KHTML, like Gecko) Chrome/87.0.4280.88 Safari/537.36" etag="cqcQ55gkhJ3sMiRMuOyM" version="14.1.8" type="github">
  <diagram id="afrXCkv_UwFtjXMHc8Qv" name="Page-1">
    <mxGraphModel dx="1298" dy="740" grid="1" gridSize="10" guides="1" tooltips="1" connect="1" arrows="1" fold="1" page="1" pageScale="1" pageWidth="827" pageHeight="1169" math="0" shadow="0">
      <root>
        <mxCell id="0" />
        <mxCell id="1" parent="0" />
        <mxCell id="1-ioFNJVORQkswQFo48e-1" value="nginx集群" style="rounded=0;whiteSpace=wrap;html=1;" parent="1" vertex="1">
          <mxGeometry x="200" y="200" width="360" height="50" as="geometry" />
        </mxCell>
        <mxCell id="1-ioFNJVORQkswQFo48e-2" value="" style="endArrow=classic;html=1;" parent="1" edge="1">
          <mxGeometry width="50" height="50" relative="1" as="geometry">
            <mxPoint x="240" y="250" as="sourcePoint" />
            <mxPoint x="240" y="300" as="targetPoint" />
          </mxGeometry>
        </mxCell>
        <mxCell id="1-ioFNJVORQkswQFo48e-3" value="webserver node" style="rounded=0;whiteSpace=wrap;html=1;" parent="1" vertex="1">
          <mxGeometry x="200" y="300" width="120" height="60" as="geometry" />
        </mxCell>
        <mxCell id="1-ioFNJVORQkswQFo48e-4" value="" style="endArrow=classic;html=1;entryX=0.436;entryY=-0.08;entryDx=0;entryDy=0;entryPerimeter=0;" parent="1" target="1-ioFNJVORQkswQFo48e-1" edge="1">
          <mxGeometry width="50" height="50" relative="1" as="geometry">
            <mxPoint x="357" y="100" as="sourcePoint" />
            <mxPoint x="350" y="130" as="targetPoint" />
          </mxGeometry>
        </mxCell>
        <mxCell id="1-ioFNJVORQkswQFo48e-5" value="Request（27W+5W QPS）" style="text;html=1;strokeColor=none;fillColor=none;align=center;verticalAlign=middle;whiteSpace=wrap;rounded=0;" parent="1" vertex="1">
          <mxGeometry x="374" y="130" width="40" height="20" as="geometry" />
        </mxCell>
        <mxCell id="1-ioFNJVORQkswQFo48e-6" value="API" style="rounded=0;whiteSpace=wrap;html=1;" parent="1" vertex="1">
          <mxGeometry x="440" y="300" width="120" height="60" as="geometry" />
        </mxCell>
        <mxCell id="1-ioFNJVORQkswQFo48e-7" value="" style="endArrow=classic;html=1;" parent="1" edge="1">
          <mxGeometry width="50" height="50" relative="1" as="geometry">
            <mxPoint x="499.5" y="250" as="sourcePoint" />
            <mxPoint x="499.5" y="300" as="targetPoint" />
          </mxGeometry>
        </mxCell>
        <mxCell id="1-ioFNJVORQkswQFo48e-8" value="" style="endArrow=classic;html=1;" parent="1" edge="1">
          <mxGeometry width="50" height="50" relative="1" as="geometry">
            <mxPoint x="320" y="329.5" as="sourcePoint" />
            <mxPoint x="440" y="330" as="targetPoint" />
          </mxGeometry>
        </mxCell>
        <mxCell id="1-ioFNJVORQkswQFo48e-9" value="LOCATION /(27W_+5W QPS)" style="text;html=1;strokeColor=none;fillColor=none;align=center;verticalAlign=middle;whiteSpace=wrap;rounded=0;" parent="1" vertex="1">
          <mxGeometry x="140" y="261" width="100" height="20" as="geometry" />
        </mxCell>
        <mxCell id="1-ioFNJVORQkswQFo48e-10" value="LOCATION /rest(27w&amp;nbsp; QPS)" style="text;html=1;strokeColor=none;fillColor=none;align=center;verticalAlign=middle;whiteSpace=wrap;rounded=0;" parent="1" vertex="1">
          <mxGeometry x="500" y="270" width="110" height="11" as="geometry" />
        </mxCell>
        <mxCell id="1-ioFNJVORQkswQFo48e-12" value="内网host&lt;br&gt;(27W+10W QPS)" style="text;html=1;strokeColor=none;fillColor=none;align=center;verticalAlign=middle;whiteSpace=wrap;rounded=0;" parent="1" vertex="1">
          <mxGeometry x="345" y="350" width="70" height="10" as="geometry" />
        </mxCell>
      </root>
    </mxGraphModel>
  </diagram>
</mxfile>
